<?xml version="1.0" encoding="UTF-8"?>
<svg width="700pt" height="700pt" version="1.1" viewBox="0 0 700 700" xmlns="http://www.w3.org/2000/svg">
 <g>
  <path d="m571.9 186.38-3.1484-2.4492-167.48-133.18c-11.699-9.2695-26.602-13.52-41.43-11.812-14.832 1.707-28.379 9.2266-37.668 20.914l-100.45 126.35-30.453 38.152c-5.957 9.1484-8.0859 20.27-5.9258 30.973s8.4336 20.129 17.477 26.25l20.824 15.926c8.2539 5.1445 14.195 13.285 16.574 22.715 2.3828 9.4297 1.0234 19.414-3.7969 27.859l-49.875 63.352-15.75 19.773c-7.2461 10.398-10.199 23.188-8.2422 35.707 1.957 12.523 8.6719 23.805 18.742 31.492 10.531 9.3555 24.062 14.633 38.148 14.875h4.5508c11.016-0.80469 21.211-6.125 28.176-14.699l17.5-21.352 49.875-62.824c7.1602-6.7031 16.656-10.344 26.461-10.145 9.8086 0.19531 19.152 4.2109 26.039 11.195l20.648 16.449c7.9961 7.4688 18.613 11.488 29.547 11.195 10.938-0.29688 21.32-4.8828 28.902-12.77l30.273-38.148 100.45-126.35h0.003906c9.2852-11.832 13.453-26.883 11.578-41.805-1.8711-14.922-9.6328-28.477-21.555-37.645zm-333.38 301.35c-4.043 4.7656-9.8594 7.6719-16.098 8.0469-10.977 0.625-21.746-3.1562-29.926-10.5-6.5664-4.8398-11.059-11.984-12.586-20-1.5234-8.0117 0.035157-16.309 4.3594-23.223l10.324-12.949 55.477 43.398zm198.1-67.727c-4.8555 4.1055-11.098 6.1953-17.445 5.8359-6.3477-0.35938-12.316-3.1367-16.68-7.7617l-20.477-15.574c-10.465-9.7969-24.352-15.098-38.68-14.77-14.332 0.32422-27.961 6.2578-37.969 16.52l-44.449 56-55.301-44.801 44.449-56c7.7461-12.062 10.449-26.68 7.5391-40.715-2.9102-14.039-11.211-26.371-23.113-34.359l-20.648-16.449c-5.3281-3.3359-9.1914-8.5703-10.816-14.641-1.625-6.0742-0.88672-12.535 2.0664-18.086l24.852-31.324 146.65 116.55 84.875 67.375zm130.73-164.5-94.852 118.65-231.7-183.92 95.023-120.23c5.9258-7.3594 14.328-12.305 23.637-13.918 9.3086-1.6094 18.887 0.22656 26.938 5.168l-77.875 98c-2.5156 3.7852-1.7148 8.8672 1.8438 11.695 3.5586 2.8242 8.6875 2.4609 11.809-0.84375l78.051-98.352 40.598 33.25-78.051 98c-2.5156 3.7852-1.7148 8.8672 1.8438 11.695 3.5586 2.8242 8.6875 2.4609 11.809-0.84375l78.574-98.352 40.602 32.199-78.051 98.352c-2.5156 3.7852-1.7148 8.8633 1.8398 11.691 3.5586 2.8281 8.6914 2.4609 11.809-0.84375l78.051-98.352 41.824 33.953-78.574 98c-2.5156 3.7852-1.7148 8.8672 1.8438 11.695 3.5547 2.8242 8.6875 2.4609 11.805-0.84375l77.875-98c6.7383 6.6562 10.797 15.555 11.41 25.004 0.61328 9.4492-2.2617 18.797-8.082 26.27z"/>
  </g>
</svg>
