<svg xmlns="http://www.w3.org/2000/svg" aria-hidden="true" style="position:absolute;width:0;height:0;overflow:hidden"><defs><symbol id="icon-construction" viewBox="0 0 32 32"><path d="M26.144 8.52 26 8.408 18.344 2.32a2.575 2.575 0 0 0-3.616.416l-4.592 5.776-1.392 1.744a1.905 1.905 0 0 0 .528 2.616l.952.728a1.72 1.72 0 0 1 .584 2.312l-2.28 2.896-.72.904a2.25 2.25 0 0 0 .48 3.072c.481.428 1.1.669 1.744.68h.208a1.83 1.83 0 0 0 1.288-.672l.8-.976 2.28-2.872a1.72 1.72 0 0 1 2.4.048l.944.752c.366.341.851.525 1.351.512s.975-.223 1.321-.584l1.384-1.744 4.592-5.776a2.576 2.576 0 0 0-.456-3.632zm-15.24 13.776a1.047 1.047 0 0 1-.736.368 1.884 1.884 0 0 1-1.368-.48 1.476 1.476 0 0 1-.376-1.976l.472-.592 2.536 1.984zM19.96 19.2a1.135 1.135 0 0 1-1.559-.088l-.936-.712a2.501 2.501 0 0 0-3.504.08l-2.032 2.56-2.528-2.048 2.032-2.56A2.504 2.504 0 0 0 10.721 13l-.944-.752a1.138 1.138 0 0 1-.4-1.496l1.136-1.432 10.584 8.408zm5.976-7.52L21.6 17.104 11.008 8.696 15.352 3.2a1.775 1.775 0 0 1 2.312-.4l-3.56 4.48a.4.4 0 0 0 .624.496l3.568-4.496 1.856 1.52-3.568 4.48c-.115.173-.078.405.084.535s.397.113.54-.039L20.8 5.28l1.856 1.472-3.568 4.496a.4.4 0 0 0 .624.495l3.568-4.496 1.912 1.552-3.592 4.48c-.115.173-.078.405.084.535s.397.113.54-.039l3.56-4.48a1.767 1.767 0 0 1 .153 2.344z"/></symbol><symbol id="icon-crane" viewBox="0 0 32 32"><path d="M27.254 16.542h-1.527l-8.009-3.772c.275-.362.44-.812.44-1.301a2.163 2.163 0 0 0-1.775-2.125V8.273h1.334a.383.383 0 0 0 .374-.297l.512-2.21a.422.422 0 0 0 .01-.087V2.442a.384.384 0 0 0-.384-.384h-4.461a.384.384 0 0 0-.384.384v3.237c0 .029.003.058.01.087l.512 2.21c.04.174.195.297.374.297h1.334v1.421c0 .212.172.384.384.384a1.393 1.393 0 0 1 .976 2.381 3.27 3.27 0 0 0-1.953 0 1.386 1.386 0 0 1-.415-.99.384.384 0 0 0-.768 0c0 .489.165.939.44 1.301l-8.009 3.772H4.742a.384.384 0 0 0-.384.384v1.175c0 .212.172.384.384.384.859 0 1.557.699 1.557 1.557s-.699 1.557-1.557 1.557a.384.384 0 0 0-.384.384v1.175c0 .212.172.384.384.384h22.509a.384.384 0 0 0 .384-.384v-1.175a.384.384 0 0 0-.384-.384c-.859 0-1.557-.699-1.557-1.557s.699-1.557 1.557-1.557a.384.384 0 0 0 .384-.384v-1.175a.384.384 0 0 0-.384-.384zm-13.1-10.908V2.825h3.693v2.809l-.433 1.87h-2.826zm.75 7.692a2.14 2.14 0 0 0 2.192 0l6.829 3.216H8.075zm.712 5.462v2.593h-4.831v-2.593zm5.599 0v2.593h-4.831v-2.593zm4.085 0a2.308 2.308 0 0 0 .054 2.593h-3.372v-2.593zm-15.283 2.593H6.645a2.308 2.308 0 0 0 .054-2.593h3.317zm16.853 1.394H5.129v-.439c.215-.036.42-.102.611-.193.019.003.037.006.057.006h20.349a.385.385 0 0 0 .097-.014c.196.095.406.164.627.201zm0-5.026a2.313 2.313 0 0 0-.761.271H5.89a2.313 2.313 0 0 0-.761-.271v-.439H26.87z"/></symbol><symbol id="icon-equipment" viewBox="0 0 32 32"><path d="M18.269 19.035a1.429 1.429 0 1 0 .002 2.854 1.429 1.429 0 0 0-.002-2.854zm0 2.086a.66.66 0 1 1 .001-1.32.66.66 0 0 1-.001 1.32zm-3.504-2.086a1.429 1.429 0 1 0 .002 2.854 1.429 1.429 0 0 0-.002-2.854zm0 2.086a.66.66 0 1 1 .001-1.32.66.66 0 0 1-.001 1.32zm10.514-2.086a1.429 1.429 0 1 0 .002 2.854 1.429 1.429 0 0 0-.002-2.854zm0 2.086a.66.66 0 1 1 .001-1.32.66.66 0 0 1-.001 1.32zm-3.505-2.086a1.429 1.429 0 1 0 .002 2.854 1.429 1.429 0 0 0-.002-2.854zm0 2.086a.66.66 0 1 1 .001-1.32.66.66 0 0 1-.001 1.32zm5.259-2.928c.001-.01.003-.019.003-.029v-3.305a.384.384 0 0 0-.384-.384h-5.638V8.598a.384.384 0 0 0-.384-.384h-4.339a.383.383 0 0 0-.315.164l-.445.639-5.297-5.838a1.873 1.873 0 0 0-3.128.263l-.003.005-3.215 6.603a1.168 1.168 0 0 0-.17.539.397.397 0 0 0-.008.078v4.23A3.006 3.006 0 0 0 6.713 17.9h4.11a.383.383 0 0 0 .3-.623L6.1 10.973l2.895-4.53 4.014 6.426v5.297c0 .01.002.019.003.029a2.679 2.679 0 0 0 1.422 4.95h11.177a2.679 2.679 0 0 0 1.422-4.95zM10.592 4.718l4.487 4.945-1.67 2.397-3.788-6.064c.49-.256.854-.722.971-1.278zm3.184 8.16 1.832-2.629h2.996v3.685h-4.827zm-5.02-9.654c.291 0 .554.115.752.299l.111.123c.151.189.245.426.245.687 0 .611-.498 1.109-1.109 1.109s-1.109-.497-1.109-1.109.497-1.109 1.109-1.109zm-3.86 7.025a.42.42 0 1 1-.419.419c0-.039.007-.076.017-.111l.004-.005.066-.135a.416.416 0 0 1 .332-.167zm5.129 6.883H6.712a2.236 2.236 0 0 1-2.234-2.234v-3.123c.131.05.271.08.419.08.273 0 .522-.097.723-.253zM5.838 9.954a1.182 1.182 0 0 0-.825-.462l2.085-4.283c.242.456.666.799 1.175.935zm7.939 4.747h5.211a.384.384 0 0 0 .384-.384V9.864a.384.384 0 0 0-.384-.384h-2.845l.347-.499h3.755v5.878c0 .212.172.384.384.384h5.638v2.622a2.689 2.689 0 0 0-.657-.085H14.433c-.227 0-.447.031-.658.085zm11.834 7.674H14.434c-1.055 0-1.913-.858-1.913-1.913s.858-1.913 1.913-1.913h11.177c1.055 0 1.913.858 1.913 1.913s-.858 1.913-1.913 1.913zm-7.872-6.888c0-.212.172-.384.384-.384h.866a.384.384 0 0 1 0 .768h-.866a.384.384 0 0 1-.384-.384z"/></symbol><symbol id="icon-house" viewBox="0 0 32 32"><path d="M12.033 15.931a.992.992 0 0 0-1.388-.009c-.191.186-.296.435-.298.701s.101.516.289.704l1.899 1.899h-1.114l-2.529-2.738v-4.572c0-.587-.478-1.065-1.065-1.065s-1.065.478-1.065 1.065v5.953c0 .437.145.87.408 1.219l2.826 3.749v1.889c0 .141.115.256.256.256h4.9a.256.256 0 0 0 .256-.256v-5.311a.256.256 0 0 0-.075-.181zm2.865 8.539H10.51v-1.719a.251.251 0 0 0-.052-.154L7.58 18.78a1.52 1.52 0 0 1-.305-.911v-5.953a.554.554 0 0 1 1.106 0v4.673c0 .064.024.126.068.174l2.618 2.835a.44.44 0 0 0 .323.141h1.318a.44.44 0 0 0 .312-.752l-2.022-2.022a.475.475 0 1 1 .673-.673l3.228 3.228zm9.274-13.618c-.587 0-1.065.478-1.065 1.065v4.573l-2.529 2.738h-1.114l1.899-1.899a.985.985 0 0 0-.009-1.405.992.992 0 0 0-1.388.009l-3.303 3.302a.256.256 0 0 0-.075.181v5.311c0 .141.115.256.256.256h4.9a.256.256 0 0 0 .256-.256v-1.889l2.826-3.749c.263-.349.408-.782.408-1.219v-5.953c0-.587-.478-1.065-1.065-1.065zm.552 7.018c0 .326-.108.65-.305.911l-2.878 3.817a.253.253 0 0 0-.052.154v1.719h-4.388v-4.949l3.228-3.228a.477.477 0 0 1 .673.673l-2.022 2.022a.44.44 0 0 0 .312.752h1.318c.122 0 .24-.052.324-.142l2.618-2.835a.254.254 0 0 0 .068-.174v-4.673a.554.554 0 0 1 1.106 0zM21.199 1.907h-1.742a.256.256 0 0 0-.256.256V3.28L16.166.679a.256.256 0 0 0-.333 0L7.914 7.466a.256.256 0 0 0 .166.45h2.464v6.346c0 .141.115.256.256.256h10.398a.256.256 0 0 0 .256-.256V7.916h2.464a.256.256 0 0 0 .166-.45l-2.63-2.254V2.163a.256.256 0 0 0-.256-.256zm-1.486.512h1.23v2.354l-1.23-1.054zm-2.67 11.588h-2.085v-4.002h2.085zm6.184-6.602h-2.028a.256.256 0 0 0-.256.256v6.346h-3.389V9.749a.256.256 0 0 0-.256-.256h-2.597a.256.256 0 0 0-.256.256v4.258h-3.389v-6.09h8.623a.256.256 0 0 0 0-.512H8.773L16 1.211zm-8.558-2.583c0 .734.597 1.331 1.331 1.331s1.331-.597 1.331-1.331S16.734 3.491 16 3.491s-1.331.597-1.331 1.331zm2.151 0a.82.82 0 0 1-1.638 0 .82.82 0 0 1 1.638 0z"/></symbol><symbol id="icon-key" viewBox="0 0 32 32"><path d="M9.92 7.875c.76-.76.416-2.239-.4-3.054-.507-.507-1.342-.881-2.439.216s-.723 1.932-.216 2.439c.387.387.93.67 1.488.776.156.029.307.044.451.044.452 0 .839-.144 1.115-.42zm-2.512-.943c-.351-.351-.437-.7.216-1.353.348-.348.61-.486.831-.486.194 0 .358.106.522.27.575.575.781 1.587.4 1.968s-1.393.176-1.968-.4zm6.131 1.408c.479 0 .989-.222 1.331-.565.311-.311.706-.961-.148-1.816s-1.505-.46-1.816-.148a1.98 1.98 0 0 0-.538 1.056c-.075.454.037.869.307 1.139.233.233.541.334.864.334zm-.414-1.348c.039-.236.16-.474.323-.638.069-.069.142-.142.253-.142.11 0 .258.071.477.29.439.439.285.594.148.73-.326.326-.895.444-1.109.231-.093-.093-.127-.265-.093-.471zm-4.158 3.191a2.117 2.117 0 0 0-1.128.574c-.329.329-.746 1.017.161 1.924.409.409.773.549 1.08.549.374 0 .663-.207.843-.388.61-.61.847-1.738.25-2.335-.285-.285-.725-.403-1.207-.324zm.414 2.116c-.151.151-.338.339-.838-.161s-.312-.687-.161-.838c.182-.182.447-.317.71-.36.234-.039.431.001.539.11.242.243.114.884-.25 1.249zM26.694 17.3a.384.384 0 0 0-.543 0l-1.133 1.133-.661-.661 1.133-1.133a.384.384 0 0 0 0-.543l-1.23-1.23a.384.384 0 0 0-.543 0l-2.477 2.477-7.598-7.598a4.126 4.126 0 0 0 2.487-1.149c1.071-1.071.934-2.294-.407-3.635s-2.564-1.478-3.635-.406a3.94 3.94 0 0 0-.672.919c-.242-.726-.647-1.412-1.163-1.927-.961-.961-2.033-1.068-3.194-.33a1.573 1.573 0 0 0-.446-.89c-.299-.299-.697-.464-1.121-.464s-.821.165-1.121.464c-.299.299-.464.698-.464 1.121a1.578 1.578 0 0 0 1.347 1.566 3.03 3.03 0 0 0-.426.974c-.175.792.082 1.539.764 2.221.509.509 1.199.92 1.932 1.164-.343.181-.66.406-.925.671-1.071 1.071-.934 2.294.406 3.635.601.601 1.155.951 1.695 1.071.141.031.281.047.419.047.538 0 1.048-.238 1.521-.711a4.028 4.028 0 0 0 1.108-2.241c.012-.089.019-.175.025-.262l11.776 11.776a1.309 1.309 0 0 0 2.235-.926c0-.301-.105-.582-.289-.813l2.487-2.487c.072-.072.113-.17.113-.271s-.041-.199-.113-.271zm-15.029-6.782a2.231 2.231 0 0 0-.555-.946 2.185 2.185 0 0 0-.542-.391c.131-.086.254-.183.364-.294.102-.102.189-.215.268-.332.101.195.227.378.388.538.273.273.606.454.968.558a1.659 1.659 0 0 1-.891.866zm.965-5.421c.262-.262.57-.484.971-.484.411 0 .919.232 1.578.89 1.302 1.302.936 2.019.406 2.549-.895.895-2.636 1.317-3.454.499s-.397-2.559.499-3.454zM4.913 4.024a.815.815 0 0 1 .578-1.395c.219 0 .424.085.578.239.154.154.239.359.239.578s-.085.424-.239.578a.839.839 0 0 1-1.156 0zm.664 2.128c.105-.475.444-.994 1.035-1.585.716-.716 1.326-1.07 1.888-1.07.421 0 .816.198 1.209.591 1.111 1.111 1.643 3.293.68 4.256-.433.433-1.168.598-2.016.452-.837-.144-1.674-.567-2.239-1.132-.491-.491-.673-.986-.557-1.512zm5.41 5.583a3.284 3.284 0 0 1-.89 1.806c-.408.408-.799.553-1.231.457-.393-.087-.824-.369-1.318-.864s-.777-.926-.864-1.318c-.096-.432.05-.823.457-1.231.558-.558 1.42-.925 2.194-.925.474 0 .916.138 1.232.455.367.367.516.942.42 1.62zm13.871 11.078a.544.544 0 0 1-.767 0L12.318 11.04c.268-.164.554-.406.775-.758l11.765 11.765c.102.102.158.238.158.383s-.056.282-.157.383zm.163-1.809-3.179-3.179 2.146-2.146.687.687-1.133 1.133a.384.384 0 0 0 0 .543l1.204 1.204c.072.072.17.113.271.113s.199-.041.271-.113l1.133-1.133.744.744z"/></symbol><symbol id="icon-measure" viewBox="0 0 32 32"><path d="m27.189 8.741-.666-.968a.385.385 0 0 0-.534-.099l-2.711 1.864a.385.385 0 0 0-.099.533l.449.652-4.465 3.072a3.152 3.152 0 0 0-.359-1.494l.817-.563c.215-.148.332-.391.314-.651s-.168-.485-.401-.601a2.445 2.445 0 0 1-1.347-1.958c-.025-.259-.182-.48-.418-.59s-.506-.087-.72.061l-.806.554c-2.234-2.894-6.381-3.572-9.43-1.476-1.528 1.051-2.555 2.635-2.893 4.459s.056 3.67 1.107 5.198a6.942 6.942 0 0 0 5.731 3.006 6.904 6.904 0 0 0 3.925-1.221l3.107-2.137a3.155 3.155 0 0 0 1.176-1.521l5.411-3.722 2.394-1.647.72 1.047a.384.384 0 1 0 .633-.435zm-9.758-.071a3.205 3.205 0 0 0 1.702 2.474l-.742.511-1.702-2.474zm-.074 7.081-3.107 2.138c-2.806 1.93-6.659 1.218-8.589-1.588S4.443 9.643 7.249 7.712a6.14 6.14 0 0 1 3.491-1.086c1.966 0 3.901.935 5.097 2.674l2.137 3.107a2.408 2.408 0 0 1-.618 3.344zm6.673-5.797 2.078-1.429.231.336-2.078 1.429zm-15.451-.31a3.828 3.828 0 0 0 2.177 6.985c.748 0 1.504-.218 2.165-.673 1.74-1.197 2.182-3.587.985-5.327s-3.587-2.182-5.327-.985zm3.907 5.679c-1.391.957-3.302.604-4.259-.788s-.604-3.302.788-4.259c1.391-.957 3.302-.604 4.259.788s.604 3.302-.788 4.259zm.429-3.01a.384.384 0 1 1-.633.435l-.461-.67a.454.454 0 0 0-.748.515l.461.67a.384.384 0 0 1-.633.436l-.461-.67a.454.454 0 0 0-.748.515l.461.67a.384.384 0 0 1-.633.436l-.461-.67c-.185-.269-.254-.594-.195-.915a1.213 1.213 0 0 1 1.39-.982c.065-.307.24-.574.5-.753a1.224 1.224 0 0 1 1.699.314z"/></symbol><symbol id="icon-paint-roller" viewBox="0 0 32 32"><path d="M22.354 1.321H9.647a2.224 2.224 0 0 0-2.17 1.752h-.748a.796.796 0 0 0-.795.795v1.261c0 .438.356.795.795.795h.7v4.725a1.13 1.13 0 0 0 2.233.227.38.38 0 0 0 .023-.126v-.993a.36.36 0 0 1 .72 0v4.085c0 .622.506 1.128 1.128 1.128s1.128-.506 1.128-1.128V9.869a.36.36 0 1 1 .72 0v.799c0 .622.506 1.128 1.128 1.128s1.128-.506 1.128-1.128V9.596a.36.36 0 1 1 .72 0v1.459c0 .622.506 1.128 1.128 1.128s1.128-.506 1.128-1.128V9.329a.36.36 0 1 1 .72 0 .39.39 0 0 0 .022.124.39.39 0 0 0-.022.124v.086c0 .041.006.081.019.118a1.13 1.13 0 0 0 2.219.001.385.385 0 0 0 .019-.119v-.086a.36.36 0 0 1 .72 0c0 .029.004.057.01.084v.581l-4.915 2.24a1.878 1.878 0 0 0-1.787 1.873v.242h-.083c-.69 0-1.251.561-1.251 1.251v7.18c0 .69.561 1.251 1.251 1.251h.934c.69 0 1.251-.561 1.251-1.251v-7.18c0-.69-.561-1.251-1.251-1.251h-.083v-.242c0-.61.496-1.107 1.106-1.107a.38.38 0 0 0 .159-.035l4.668-2.127v.714c0 .622.506 1.128 1.128 1.128s1.128-.506 1.128-1.128v-1.742l1.266-.577a.384.384 0 0 0 .225-.349V5.991c0-.902-.641-1.657-1.491-1.835v-.613a2.224 2.224 0 0 0-2.221-2.221zm-5.403 14.527v7.18a.484.484 0 0 1-.483.483h-.934a.484.484 0 0 1-.483-.483v-7.18c0-.266.217-.483.483-.483h.934c.266 0 .483.217.483.483zM9.647 2.089h12.707c.801 0 1.452.651 1.452 1.452v1.914c0 .801-.651 1.452-1.452 1.452H9.647c-.781 0-1.418-.62-1.449-1.393V4.6l-.003-.03V3.541c0-.801.652-1.452 1.452-1.452zm-2.944 3.04V3.868c0-.015.012-.027.027-.027h.697v1.314H6.73a.027.027 0 0 1-.027-.027zm16.361 4.323a1.126 1.126 0 0 0-1.115-1.004c-.595 0-1.079.465-1.12 1.05a.397.397 0 0 0-.008.078.36.36 0 1 1-.72 0 .39.39 0 0 0-.022-.124.39.39 0 0 0 .022-.124c0-.622-.506-1.128-1.128-1.128s-1.128.506-1.128 1.128v1.726a.36.36 0 1 1-.72 0V9.595c0-.622-.506-1.128-1.128-1.128s-1.128.506-1.128 1.128v1.072a.36.36 0 0 1-.72 0v-.799c0-.622-.506-1.128-1.128-1.128s-1.128.506-1.128 1.128v3.974a.36.36 0 1 1-.72 0v-.333l.001-3.419v-.333c0-.622-.506-1.128-1.128-1.128s-1.128.506-1.128 1.128v.892a.36.36 0 0 1-.72 0V7.134c.389.337.895.542 1.449.542h12.707c.556 0 1.063-.206 1.452-.545v2.432l-.72.328v-.315a.39.39 0 0 0-.022-.124zm.742 2.347a.36.36 0 0 1-.72 0v-1.064l.72-.328zm1.491-5.81v2.894l-.723.329V4.954c.421.157.723.559.723 1.034zm-9.863 16.246a.567.567 0 1 0 1.134-.002.567.567 0 0 0-1.134.002zm.769 0c0 .111-.091.202-.202.202s-.202-.091-.202-.202c0-.111.091-.202.202-.202s.202.091.202.202zM10.355 3.063c0-.212.172-.384.384-.384h10.31a.384.384 0 0 1 0 .768H10.74a.384.384 0 0 1-.384-.384z"/></symbol><symbol id="icon-wall" viewBox="0 0 32 32"><path d="M5.415 17.59a.384.384 0 0 0-.384.384v3.449c0 .212.172.384.384.384h21.169a.384.384 0 0 0 .384-.384v-3.449a.384.384 0 0 0-.384-.384H23.44v-2.681h3.144a.384.384 0 0 0 .384-.384v-3.45a.384.384 0 0 0-.384-.384H23.44V8.01h3.144a.384.384 0 0 0 .384-.384V4.177a.384.384 0 0 0-.384-.384H5.414a.384.384 0 0 0-.384.384v3.449c0 .212.172.384.384.384h3.144v2.681H5.414a.384.384 0 0 0-.384.384v3.449c0 .212.172.384.384.384h3.144v2.681zm.384.768h6.288v2.681H5.799zm7.057 0h6.288v2.681h-6.288zm13.345 2.682h-6.288v-2.681h6.288zm-3.528-3.45h-6.288v-2.681h6.288zm-9.817-6.13h6.288v2.681h-6.288zm13.345 2.681h-6.288V11.46h6.288zm-3.528-3.449h-6.288V8.011h6.288zm3.528-3.45h-6.288V4.561h6.288zm-7.057 0h-6.288V4.561h6.288zM5.799 4.561h6.288v2.681H5.798zM9.328 8.01h6.288v2.681H9.328zm-3.529 3.45h6.288v2.681H5.799zm3.529 3.449h6.288v2.681H9.328z"/></symbol><symbol id="icon-arrow-up" viewBox="0 0 32 32"><path d="m27.414 12.586-10-10a2 2 0 0 0-2.828 0l-10 10a2 2 0 1 0 2.828 2.828L14 8.828V28a2 2 0 1 0 4 0V8.828l6.586 6.586c.39.39.902.586 1.414.586s1.024-.195 1.414-.586a2 2 0 0 0 0-2.828z"/></symbol><symbol id="icon-Tel" viewBox="0 0 21 32"><path  d="M18.133 0H3.2C1.435 0 0 1.34 0 2.987v25.889c0 1.647 1.435 2.987 3.2 2.987h14.933c1.765 0 3.2-1.34 3.2-2.987V2.987c0-1.647-1.435-2.987-3.2-2.987zM3.2 1.991h14.933c.589 0 1.067.446 1.067.996v20.91H2.133V2.987c0-.549.478-.996 1.067-.996zm14.933 27.881H3.2c-.589 0-1.067-.446-1.067-.996v-2.987H19.2v2.987c0 .55-.478.996-1.067.996z"/><path d="M5.021 27.177c.417.389.417 1.02 0 1.409s-1.092.389-1.508 0c-.417-.389-.417-1.02 0-1.409s1.092-.389 1.508 0z"/></symbol><symbol id="icon-E-mail" viewBox="0 0 43 32"><path d="M38.667 0H4C1.794 0 0 1.675 0 3.734v22.404c0 2.059 1.794 3.734 4 3.734h34.667c2.206 0 4-1.675 4-3.734V3.734c0-2.059-1.794-3.734-4-3.734zm0 2.489c.181 0 .353.035.511.096L21.334 17.022 3.49 2.585c.158-.061.33-.096.511-.096h34.667zm0 24.894H4c-.736 0-1.333-.558-1.333-1.245V5.216L20.46 19.611c.251.203.563.304.874.304s.622-.101.874-.304L40.001 5.216v20.922c0 .687-.598 1.245-1.333 1.245z"/></symbol></defs></svg>