<?xml version="1.0" encoding="UTF-8"?>
<svg width="700pt" height="700pt" version="1.1" viewBox="0 0 700 700" xmlns="http://www.w3.org/2000/svg" xmlns:xlink="http://www.w3.org/1999/xlink">
 <defs>
  <symbol id="s" overflow="visible">
   <path d="m18.766-1.125c-0.96875 0.5-1.9805 0.875-3.0312 1.125-1.043 0.25781-2.1367 0.39062-3.2812 0.39062-3.3984 0-6.0898-0.94531-8.0781-2.8438-1.9922-1.9062-2.9844-4.4844-2.9844-7.7344 0-3.2578 0.99219-5.8359 2.9844-7.7344 1.9883-1.9062 4.6797-2.8594 8.0781-2.8594 1.1445 0 2.2383 0.13281 3.2812 0.39062 1.0508 0.25 2.0625 0.625 3.0312 1.125v4.2188c-0.98047-0.65625-1.9453-1.1406-2.8906-1.4531-0.94922-0.3125-1.9492-0.46875-3-0.46875-1.875 0-3.3516 0.60547-4.4219 1.8125-1.0742 1.1992-1.6094 2.8555-1.6094 4.9688 0 2.1055 0.53516 3.7617 1.6094 4.9688 1.0703 1.1992 2.5469 1.7969 4.4219 1.7969 1.0508 0 2.0508-0.14844 3-0.45312 0.94531-0.3125 1.9102-0.80078 2.8906-1.4688z"/>
  </symbol>
  <symbol id="c" overflow="visible">
   <path d="m13.734-11.141c-0.4375-0.19531-0.87109-0.34375-1.2969-0.4375-0.41797-0.10156-0.83984-0.15625-1.2656-0.15625-1.2617 0-2.2305 0.40625-2.9062 1.2188-0.67969 0.80469-1.0156 1.9531-1.0156 3.4531v7.0625h-4.8906v-15.312h4.8906v2.5156c0.625-1 1.3438-1.7266 2.1562-2.1875 0.82031-0.46875 1.8008-0.70312 2.9375-0.70312 0.16406 0 0.34375 0.011719 0.53125 0.03125 0.19531 0.011719 0.47656 0.039062 0.84375 0.078125z"/>
  </symbol>
  <symbol id="b" overflow="visible">
   <path d="m17.641-7.7031v1.4062h-11.453c0.125 1.1484 0.53906 2.0078 1.25 2.5781 0.70703 0.57422 1.7031 0.85938 2.9844 0.85938 1.0312 0 2.082-0.14844 3.1562-0.45312 1.082-0.3125 2.1914-0.77344 3.3281-1.3906v3.7656c-1.1562 0.4375-2.3125 0.76562-3.4688 0.98438-1.1562 0.22656-2.3125 0.34375-3.4688 0.34375-2.7734 0-4.9297-0.70312-6.4688-2.1094-1.5312-1.4062-2.2969-3.3789-2.2969-5.9219 0-2.5 0.75391-4.4609 2.2656-5.8906 1.5078-1.4375 3.582-2.1562 6.2188-2.1562 2.4062 0 4.332 0.73047 5.7812 2.1875 1.4453 1.4492 2.1719 3.3828 2.1719 5.7969zm-5.0312-1.625c0-0.92578-0.27344-1.6719-0.8125-2.2344-0.54297-0.57031-1.25-0.85938-2.125-0.85938-0.94922 0-1.7188 0.26562-2.3125 0.79688s-0.96484 1.2969-1.1094 2.2969z"/>
  </symbol>
  <symbol id="g" overflow="visible">
   <path d="m9.2188-6.8906c-1.0234 0-1.793 0.17188-2.3125 0.51562-0.51172 0.34375-0.76562 0.85547-0.76562 1.5312 0 0.625 0.20703 1.1172 0.625 1.4688 0.41406 0.34375 0.98828 0.51562 1.7188 0.51562 0.92578 0 1.7031-0.32812 2.3281-0.98438 0.63281-0.66406 0.95312-1.4922 0.95312-2.4844v-0.5625zm7.4688-1.8438v8.7344h-4.9219v-2.2656c-0.65625 0.92969-1.3984 1.6055-2.2188 2.0312-0.82422 0.41406-1.8242 0.625-3 0.625-1.5859 0-2.8711-0.45703-3.8594-1.375-0.99219-0.92578-1.4844-2.1289-1.4844-3.6094 0-1.7891 0.61328-3.1016 1.8438-3.9375 1.2383-0.84375 3.1797-1.2656 5.8281-1.2656h2.8906v-0.39062c0-0.76953-0.30859-1.332-0.92188-1.6875-0.61719-0.36328-1.5703-0.54688-2.8594-0.54688-1.0547 0-2.0312 0.10547-2.9375 0.3125-0.89844 0.21094-1.7305 0.52344-2.5 0.9375v-3.7344c1.0391-0.25 2.0859-0.44141 3.1406-0.57812 1.0625-0.13281 2.125-0.20312 3.1875-0.20312 2.7578 0 4.75 0.54688 5.9688 1.6406 1.2266 1.0859 1.8438 2.8555 1.8438 5.3125z"/>
  </symbol>
  <symbol id="a" overflow="visible">
   <path d="m7.7031-19.656v4.3438h5.0469v3.5h-5.0469v6.5c0 0.71094 0.14062 1.1875 0.42188 1.4375s0.83594 0.375 1.6719 0.375h2.5156v3.5h-4.1875c-1.9375 0-3.3125-0.39844-4.125-1.2031-0.80469-0.8125-1.2031-2.1797-1.2031-4.1094v-6.5h-2.4219v-3.5h2.4219v-4.3438z"/>
  </symbol>
  <symbol id="f" overflow="visible">
   <path d="m12.766-13.078v-8.2031h4.9219v21.281h-4.9219v-2.2188c-0.66797 0.90625-1.4062 1.5703-2.2188 1.9844s-1.7578 0.625-2.8281 0.625c-1.8867 0-3.4336-0.75-4.6406-2.25-1.2109-1.5-1.8125-3.4258-1.8125-5.7812 0-2.3633 0.60156-4.2969 1.8125-5.7969 1.207-1.5 2.7539-2.25 4.6406-2.25 1.0625 0 2 0.21484 2.8125 0.64062 0.82031 0.42969 1.5664 1.0859 2.2344 1.9688zm-3.2188 9.9219c1.0391 0 1.8359-0.37891 2.3906-1.1406 0.55078-0.76953 0.82812-1.8828 0.82812-3.3438 0-1.457-0.27734-2.5664-0.82812-3.3281-0.55469-0.76953-1.3516-1.1562-2.3906-1.1562-1.043 0-1.8398 0.38672-2.3906 1.1562-0.55469 0.76172-0.82812 1.8711-0.82812 3.3281 0 1.4609 0.27344 2.5742 0.82812 3.3438 0.55078 0.76172 1.3477 1.1406 2.3906 1.1406z"/>
  </symbol>
  <symbol id="j" overflow="visible">
   <path d="m10.5-3.1562c1.0508 0 1.8516-0.37891 2.4062-1.1406 0.55078-0.76953 0.82812-1.8828 0.82812-3.3438 0-1.457-0.27734-2.5664-0.82812-3.3281-0.55469-0.76953-1.3555-1.1562-2.4062-1.1562-1.0547 0-1.8594 0.38672-2.4219 1.1562-0.55469 0.77344-0.82812 1.8828-0.82812 3.3281 0 1.4492 0.27344 2.5586 0.82812 3.3281 0.5625 0.77344 1.3672 1.1562 2.4219 1.1562zm-3.25-9.9219c0.67578-0.88281 1.4219-1.5391 2.2344-1.9688 0.82031-0.42578 1.7656-0.64062 2.8281-0.64062 1.8945 0 3.4453 0.75 4.6562 2.25 1.207 1.5 1.8125 3.4336 1.8125 5.7969 0 2.3555-0.60547 4.2812-1.8125 5.7812-1.2109 1.5-2.7617 2.25-4.6562 2.25-1.0625 0-2.0078-0.21094-2.8281-0.625-0.8125-0.42578-1.5586-1.0859-2.2344-1.9844v2.2188h-4.8906v-21.281h4.8906z"/>
  </symbol>
  <symbol id="i" overflow="visible">
   <path d="m0.34375-15.312h4.8906l4.125 10.391 3.5-10.391h4.8906l-6.4375 16.766c-0.64844 1.6953-1.4023 2.8828-2.2656 3.5625-0.86719 0.6875-2 1.0312-3.4062 1.0312h-2.8438v-3.2188h1.5312c0.83203 0 1.4375-0.13672 1.8125-0.40625 0.38281-0.26172 0.67969-0.73047 0.89062-1.4062l0.14062-0.42188z"/>
  </symbol>
  <symbol id="e" overflow="visible">
   <path d="m2.5781-20.406h8.7344c2.5938 0 4.582 0.57812 5.9688 1.7344 1.3945 1.1484 2.0938 2.7891 2.0938 4.9219 0 2.1367-0.69922 3.7812-2.0938 4.9375-1.3867 1.1562-3.375 1.7344-5.9688 1.7344h-3.4844v7.0781h-5.25zm5.25 3.8125v5.7031h2.9219c1.0195 0 1.8047-0.25 2.3594-0.75 0.5625-0.5 0.84375-1.2031 0.84375-2.1094 0-0.91406-0.28125-1.6172-0.84375-2.1094-0.55469-0.48828-1.3398-0.73438-2.3594-0.73438z"/>
  </symbol>
  <symbol id="h" overflow="visible">
   <path d="m17.75-9.3281v9.3281h-4.9219v-7.1094c0-1.3438-0.03125-2.2656-0.09375-2.7656s-0.16797-0.86719-0.3125-1.1094c-0.1875-0.3125-0.44922-0.55469-0.78125-0.73438-0.32422-0.17578-0.69531-0.26562-1.1094-0.26562-1.0234 0-1.8242 0.39844-2.4062 1.1875-0.58594 0.78125-0.875 1.8711-0.875 3.2656v7.5312h-4.8906v-21.281h4.8906v8.2031c0.73828-0.88281 1.5195-1.5391 2.3438-1.9688 0.83203-0.42578 1.75-0.64062 2.75-0.64062 1.7695 0 3.1133 0.54688 4.0312 1.6406 0.91406 1.0859 1.375 2.6562 1.375 4.7188z"/>
  </symbol>
  <symbol id="r" overflow="visible">
   <path d="m2.5781-20.406h5.25v16.422h9.25v3.9844h-14.5z"/>
  </symbol>
  <symbol id="d" overflow="visible">
   <path d="m9.6406-12.188c-1.0859 0-1.9141 0.39062-2.4844 1.1719-0.57422 0.78125-0.85938 1.9062-0.85938 3.375s0.28516 2.5938 0.85938 3.375c0.57031 0.77344 1.3984 1.1562 2.4844 1.1562 1.0625 0 1.875-0.38281 2.4375-1.1562 0.57031-0.78125 0.85938-1.9062 0.85938-3.375s-0.28906-2.5938-0.85938-3.375c-0.5625-0.78125-1.375-1.1719-2.4375-1.1719zm0-3.5c2.6328 0 4.6914 0.71484 6.1719 2.1406 1.4766 1.418 2.2188 3.3867 2.2188 5.9062 0 2.5117-0.74219 4.4805-2.2188 5.9062-1.4805 1.418-3.5391 2.125-6.1719 2.125-2.6484 0-4.7148-0.70703-6.2031-2.125-1.4922-1.4258-2.2344-3.3945-2.2344-5.9062 0-2.5195 0.74219-4.4883 2.2344-5.9062 1.4883-1.4258 3.5547-2.1406 6.2031-2.1406z"/>
  </symbol>
  <symbol id="q" overflow="visible">
   <path d="m12.422-21.281v3.2188h-2.7031c-0.6875 0-1.1719 0.125-1.4531 0.375-0.27344 0.25-0.40625 0.6875-0.40625 1.3125v1.0625h4.1875v3.5h-4.1875v11.812h-4.8906v-11.812h-2.4375v-3.5h2.4375v-1.0625c0-1.6641 0.46094-2.8984 1.3906-3.7031 0.92578-0.80078 2.3672-1.2031 4.3281-1.2031z"/>
  </symbol>
  <symbol id="p" overflow="visible">
   <path d="m16.547-12.766c0.61328-0.94531 1.3477-1.6719 2.2031-2.1719 0.85156-0.5 1.7891-0.75 2.8125-0.75 1.7578 0 3.0977 0.54688 4.0156 1.6406 0.92578 1.0859 1.3906 2.6562 1.3906 4.7188v9.3281h-4.9219v-7.9844-0.35938c0.007813-0.13281 0.015625-0.32031 0.015625-0.5625 0-1.082-0.16406-1.8633-0.48438-2.3438-0.3125-0.48828-0.82422-0.73438-1.5312-0.73438-0.92969 0-1.6484 0.38672-2.1562 1.1562-0.51172 0.76172-0.77344 1.8672-0.78125 3.3125v7.5156h-4.9219v-7.9844c0-1.6953-0.14844-2.7852-0.4375-3.2656-0.29297-0.48828-0.8125-0.73438-1.5625-0.73438-0.9375 0-1.6641 0.38672-2.1719 1.1562-0.51172 0.76172-0.76562 1.8594-0.76562 3.2969v7.5312h-4.9219v-15.312h4.9219v2.2344c0.60156-0.86328 1.2891-1.5156 2.0625-1.9531 0.78125-0.4375 1.6406-0.65625 2.5781-0.65625 1.0625 0 2 0.25781 2.8125 0.76562 0.8125 0.51172 1.4258 1.2305 1.8438 2.1562z"/>
  </symbol>
  <symbol id="o" overflow="visible">
   <path d="m2.5781-20.406h5.875l7.4219 14v-14h4.9844v20.406h-5.875l-7.4219-14v14h-4.9844z"/>
  </symbol>
  <symbol id="n" overflow="visible">
   <path d="m2.1875-5.9688v-9.3438h4.9219v1.5312c0 0.83594-0.007813 1.875-0.015625 3.125-0.011719 1.25-0.015625 2.0859-0.015625 2.5 0 1.2422 0.03125 2.1328 0.09375 2.6719 0.070313 0.54297 0.17969 0.93359 0.32812 1.1719 0.20703 0.32422 0.47266 0.57422 0.79688 0.75 0.32031 0.16797 0.69141 0.25 1.1094 0.25 1.0195 0 1.8203-0.39062 2.4062-1.1719 0.58203-0.78125 0.875-1.8672 0.875-3.2656v-7.5625h4.8906v15.312h-4.8906v-2.2188c-0.74219 0.89844-1.5234 1.5586-2.3438 1.9844-0.82422 0.41406-1.7344 0.625-2.7344 0.625-1.7617 0-3.1055-0.53906-4.0312-1.625-0.92969-1.082-1.3906-2.6602-1.3906-4.7344z"/>
  </symbol>
  <symbol id="m" overflow="visible">
   <path d="m17.75-9.3281v9.3281h-4.9219v-7.1406c0-1.3203-0.03125-2.2344-0.09375-2.7344s-0.16797-0.86719-0.3125-1.1094c-0.1875-0.3125-0.44922-0.55469-0.78125-0.73438-0.32422-0.17578-0.69531-0.26562-1.1094-0.26562-1.0234 0-1.8242 0.39844-2.4062 1.1875-0.58594 0.78125-0.875 1.8711-0.875 3.2656v7.5312h-4.8906v-15.312h4.8906v2.2344c0.73828-0.88281 1.5195-1.5391 2.3438-1.9688 0.83203-0.42578 1.75-0.64062 2.75-0.64062 1.7695 0 3.1133 0.54688 4.0312 1.6406 0.91406 1.0859 1.375 2.6562 1.375 4.7188z"/>
  </symbol>
  <symbol id="l" overflow="visible">
   <path d="m2.3594-15.312h4.8906v15.031c0 2.0508-0.49609 3.6172-1.4844 4.7031-0.98047 1.082-2.4062 1.625-4.2812 1.625h-2.4219v-3.2188h0.85938c0.92578 0 1.5625-0.21094 1.9062-0.625 0.35156-0.41797 0.53125-1.2461 0.53125-2.4844zm0-5.9688h4.8906v4h-4.8906z"/>
  </symbol>
  <symbol id="k" overflow="visible">
   <path d="m14.719-14.828v3.9844c-0.65625-0.45703-1.3242-0.79688-2-1.0156-0.66797-0.21875-1.3594-0.32812-2.0781-0.32812-1.3672 0-2.4336 0.40234-3.2031 1.2031-0.76172 0.79297-1.1406 1.9062-1.1406 3.3438 0 1.4297 0.37891 2.543 1.1406 3.3438 0.76953 0.79297 1.8359 1.1875 3.2031 1.1875 0.75781 0 1.4844-0.10938 2.1719-0.32812 0.6875-0.22656 1.3203-0.56641 1.9062-1.0156v4c-0.76172 0.28125-1.5391 0.48828-2.3281 0.625-0.78125 0.14453-1.5742 0.21875-2.375 0.21875-2.7617 0-4.9219-0.70703-6.4844-2.125-1.5547-1.4141-2.3281-3.3828-2.3281-5.9062 0-2.5312 0.77344-4.5039 2.3281-5.9219 1.5625-1.4141 3.7227-2.125 6.4844-2.125 0.80078 0 1.5938 0.074219 2.375 0.21875 0.78125 0.13672 1.5547 0.35156 2.3281 0.64062z"/>
  </symbol>
 </defs>
 <g>
  <path d="m216.99 172.26c16.621-16.621 9.0938-48.98-8.7422-66.812-11.09-11.094-29.352-19.273-53.348 4.7266-24 23.996-15.816 42.258-4.7227 53.348 8.4727 8.4727 20.34 14.652 32.559 16.965 3.4102 0.64453 6.707 0.96094 9.8555 0.96094 9.8945 0 18.352-3.1406 24.398-9.1875zm-54.934-20.617c-7.6758-7.6797-9.5625-15.305 4.7227-29.59 7.6133-7.6133 13.336-10.633 18.18-10.633 4.25 0 7.8242 2.3242 11.41 5.9102 12.586 12.586 17.078 34.719 8.7422 43.059-8.3438 8.3281-30.473 3.8398-43.055-8.7461zm134.11 30.805c10.469 0 21.625-4.8594 29.121-12.352v-0.003906c6.8125-6.8125 15.453-21.031-3.2461-39.727-18.691-18.699-32.914-10.059-39.727-3.2461-6.0625 6.0625-10.355 14.484-11.773 23.109-1.6328 9.9258 0.81641 19.008 6.7266 24.914 5.0977 5.1016 11.84 7.3047 18.898 7.3047zm-9.0469-29.492c0.84766-5.1562 3.4922-10.371 7.0742-13.953 1.5-1.5 3.0977-3.0977 5.5391-3.0977 2.4141 0 5.6523 1.5625 10.43 6.3398 9.6055 9.6094 6.2305 12.988 3.2461 15.969-7.125 7.125-19.582 9.7148-24.262 5.0508-2.0312-2.0312-2.7695-5.7891-2.0273-10.309zm-90.965 69.805c-9.207 1.5156-18.199 6.0938-24.668 12.566h-0.003907c-7.1953 7.2031-16.312 22.246 3.5234 42.078 8.9453 8.9453 16.914 12.004 23.629 12.004 8.1758 0 14.496-4.5312 18.445-8.4844 13.348-13.348 18.523-38.023 5.4766-51.07-6.2383-6.2383-15.863-8.8203-26.402-7.0938zm9.0508 46.289c-3.293 3.293-7.3984 7.4062-18.32-3.5195-10.918-10.918-6.8164-15.027-3.5195-18.324 3.9844-3.9844 9.7852-6.9258 15.52-7.8711 5.1211-0.84375 9.418 0.027343 11.793 2.3984 5.3047 5.3086 2.4922 19.348-5.4727 27.316zm378.73 109.38c-3.2812-3.2812-8.5977-3.2812-11.879 0l-24.781 24.777-14.465-14.465 24.777-24.781c3.2812-3.2812 3.2812-8.5977 0-11.879l-26.906-26.906c-3.2812-3.2812-8.5977-3.2812-11.879 0l-54.188 54.188-166.2-166.2c19.852-1.7109 40.336-11.07 54.395-25.133 23.434-23.438 20.441-50.191-8.8945-79.523-29.34-29.336-56.094-32.324-79.52-8.8906-5.7734 5.7695-10.707 12.66-14.707 20.109-5.2852-15.879-14.16-30.887-25.434-42.156-21.031-21.031-44.469-23.363-69.871-7.2188-1.0664-7.3438-4.4102-14.129-9.75-19.473h-0.003906v-0.003906c-6.5508-6.5508-15.254-10.156-24.52-10.156-9.2617 0-17.969 3.6094-24.516 10.156-6.5508 6.5508-10.156 15.258-10.156 24.52s3.6055 17.969 10.156 24.52c5.3008 5.3008 12.023 8.6328 19.305 9.7266-4.6758 7.2852-7.7734 14.359-9.3125 21.316-3.832 17.32 1.7852 33.664 16.703 48.578 11.129 11.133 26.238 20.125 42.273 25.465-7.5039 3.9609-14.438 8.8906-20.227 14.676-23.434 23.43-20.441 50.188 8.8906 79.52 13.145 13.145 25.273 20.805 37.082 23.418 3.0938 0.68359 6.1445 1.0273 9.1602 1.0273 11.773 0 22.93-5.2109 33.273-15.555 12.801-12.797 21.633-30.668 24.23-49.027 0.27344-1.9414 0.41406-3.8359 0.54297-5.7266l257.59 257.6c5.5898 5.582 12.926 8.3789 20.266 8.3789s14.68-2.793 20.266-8.3789c5.3984-5.3984 8.3711-12.594 8.3711-20.266 0-6.582-2.3047-12.738-6.332-17.781l54.41-54.41c1.5742-1.5742 2.4609-3.7109 2.4609-5.9375 0-2.2266-0.88672-4.3633-2.4609-5.9375zm-328.77-148.35c-2.4102-7.9766-6.457-15.008-12.137-20.688-3.543-3.5469-7.5625-6.332-11.863-8.5469 2.8672-1.8828 5.5469-4.0078 7.9727-6.4297 2.2344-2.2344 4.1289-4.6953 5.8672-7.2539 2.1992 4.2734 4.9609 8.2617 8.4805 11.777 5.9805 5.9805 13.25 9.9297 21.176 12.203-4.6367 10.895-13.508 16.383-19.496 18.938zm21.109-118.59c5.7305-5.7266 12.461-10.582 21.25-10.582 8.9805 0 20.113 5.0742 34.512 19.473 28.484 28.488 20.48 44.176 8.8906 55.766-19.582 19.574-57.664 28.809-75.562 10.906-17.906-17.906-8.6758-55.98 10.91-75.562zm-168.8-23.461c-3.375-3.375-5.2383-7.8672-5.2383-12.641 0-4.7734 1.8594-9.2617 5.2383-12.637 3.375-3.375 7.8633-5.2383 12.637-5.2383 4.7773 0 9.2656 1.8594 12.637 5.2383 0.003906 0 0.003906 0 0.003906 0.003906 3.375 3.375 5.2383 7.8633 5.2383 12.637s-1.8594 9.2656-5.2383 12.641c-6.75 6.7383-18.523 6.7461-25.277-0.003906zm14.52 46.555c2.3008-10.395 9.707-21.738 22.641-34.676 15.672-15.672 29.004-23.402 41.305-23.402 9.2109 0 17.844 4.3398 26.445 12.938 24.301 24.305 35.938 72.031 14.879 93.094-9.4766 9.4805-25.547 13.086-44.109 9.8945-18.305-3.1445-36.613-12.406-48.98-24.773-10.746-10.746-14.73-21.562-12.18-33.074zm118.35 122.11c-2.0664 14.609-9.3477 29.379-19.473 39.504-8.918 8.918-17.469 12.09-26.926 10.004-8.5898-1.9023-18.023-8.082-28.836-18.895s-16.996-20.246-18.895-28.836c-2.0938-9.4531 1.0859-18.008 10.004-26.926 12.211-12.211 31.07-20.227 47.984-20.227 10.379 0 20.031 3.0234 26.953 9.9453 8.0195 8.0273 11.281 20.609 9.1875 35.43zm303.42 242.34c-4.625 4.6172-12.145 4.625-16.773 0l-257.54-257.54c5.8711-3.5898 12.129-8.8828 16.961-16.582l257.35 257.35c2.2266 2.2227 3.4492 5.1992 3.4492 8.3828 0.003906 3.1836-1.2227 6.1602-3.4453 8.3867zm3.5742-39.578-69.531-69.535 46.934-46.934 15.027 15.027-24.777 24.781c-3.2812 3.2812-3.2812 8.5977 0 11.879l26.344 26.344c1.5742 1.5742 3.7109 2.4609 5.9375 2.4609 2.2266 0 4.3633-0.88672 5.9375-2.4609l24.781-24.781 16.281 16.281z"/>
 </g>
</svg>
